<svg id="Layer_1" data-name="Layer 1" xmlns="http://www.w3.org/2000/svg" viewBox="0 0 990.91 1134.13"><defs><style>.cls-1,.cls-2{fill:none;stroke:#8dca6e;stroke-linecap:round;stroke-miterlimit:10;}.cls-1{stroke-width:50px;}.cls-2{stroke-width:80px;}</style></defs><title>logo</title><path class="cls-1" d="M7731.1,7341.83a429.88,429.88,0,0,1-359.93-58.66c-3.93,5.22-88.05,113.67-205.77,96.58-44.56-6.47-77.07-28.47-95.44-43.71a1461.29,1461.29,0,0,0-155.68,195.13c-77.24,115.85-112,203.93-121.78,200-10.43-4.2,15.22-109.83,61.33-212.45a976.46,976.46,0,0,1,154.79-241c-9.6-21.8-44.08-106.89-8.12-194.58,42.62-103.94,167-169.53,304-150.67,13.46-46.41,42.15-115.45,105.33-172,65-58.2,137.69-77.3,198.67-93.33a652.08,652.08,0,0,1,122.6-20" transform="translate(-6765.19 -6622.17)"/><path class="cls-1" d="M7144.75,7375.48a264.45,264.45,0,0,1-104.84-69.5,261.45,261.45,0,0,1-47.62-73.86" transform="translate(-6765.19 -6622.17)"/><path class="cls-1" d="M7478.16,6973.13a547,547,0,0,1,216.68-89.64" transform="translate(-6765.19 -6622.17)"/><path class="cls-1" d="M7496.83,7140.17a651.93,651.93,0,0,1,198-74.63" transform="translate(-6765.19 -6622.17)"/><line class="cls-2" x1="331.01" y1="512.56" x2="331.01" y2="512.56"/><line class="cls-1" x1="656.53" y1="388.89" x2="656.53" y2="388.89"/><line class="cls-1" x1="675.31" y1="549" x2="675.31" y2="549"/></svg>