<svg id="Layer_1" data-name="Layer 1" xmlns="http://www.w3.org/2000/svg" viewBox="0 0 1074 1073.8"><defs><style>.cls-1,.cls-2{fill:none;stroke:#8dca6e;stroke-linecap:round;stroke-miterlimit:10;}.cls-1{stroke-width:50px;}.cls-2{stroke-width:80px;}</style></defs><title>logo</title><path class="cls-1" d="M7730.33,7339.64a433.08,433.08,0,0,1-359.27-57.94c-3.92,5.16-87.89,112.25-205.4,95.38-44.48-6.39-76.93-28.12-95.26-43.17-33,37-81.92,93.89-137.31,166.81-85.66,112.77-124.24,181.55-133.44,176.87-10.91-5.56,27.6-110.42,78.08-205.41a1153.89,1153.89,0,0,1,131.44-195.83c-9.59-21.52-44-105.56-8.11-192.15,42.55-102.64,166.68-167.41,303.45-148.79,11.77-39.62,39.27-110.11,105.14-169.85,67.66-61.35,140.59-79.41,199.19-93.92,45.58-11.29,119.84-24,212.95-14.05" transform="translate(-6772.79 -6629.01)"/><path class="cls-1" d="M7145.05,7372.87c-23.69-8.48-66.46-27.46-104.65-68.64a258,258,0,0,1-47.54-72.94" transform="translate(-6772.79 -6629.01)"/><path class="cls-1" d="M7498.81,6958.75a549.48,549.48,0,0,1,216.3-88.52" transform="translate(-6772.79 -6629.01)"/><path class="cls-1" d="M7517.45,7123.71a654.84,654.84,0,0,1,197.66-73.7" transform="translate(-6772.79 -6629.01)"/><line class="cls-2" x1="323.8" y1="506.1" x2="323.8" y2="506.1"/><line class="cls-1" x1="669.69" y1="367.19" x2="669.69" y2="367.19"/><line class="cls-1" x1="688.43" y1="525.3" x2="688.43" y2="525.3"/></svg>